<mxfile host="app.diagrams.net" agent="Mozilla/5.0 (X11; Linux x86_64) AppleWebKit/537.36 (KHTML, like Gecko) Chrome/133.0.0.0 Safari/537.36" version="26.0.16">
  <diagram name="Page-1" id="831jx0RdU6ZW0vLNPyk8">
    <mxGraphModel dx="1203" dy="976" grid="1" gridSize="10" guides="1" tooltips="1" connect="1" arrows="1" fold="1" page="1" pageScale="1" pageWidth="850" pageHeight="1100" math="0" shadow="0">
      <root>
        <mxCell id="0" />
        <mxCell id="1" parent="0" />
        <mxCell id="LQpbqU_6TQzX5eW3azaJ-12" value="&lt;b&gt;&lt;font style=&quot;font-size: 14px;&quot;&gt;OMD site&lt;/font&gt;&lt;/b&gt;" style="rounded=1;whiteSpace=wrap;html=1;verticalAlign=top;" parent="1" vertex="1">
          <mxGeometry x="518" y="320" width="282" height="280" as="geometry" />
        </mxCell>
        <mxCell id="LQpbqU_6TQzX5eW3azaJ-1" value="&lt;b&gt;&lt;font style=&quot;font-size: 14px;&quot; face=&quot;Lucida Console&quot;&gt;Windows server&lt;/font&gt;&lt;/b&gt;" style="image;aspect=fixed;perimeter=ellipsePerimeter;html=1;align=center;shadow=0;dashed=0;spacingTop=3;image=img/lib/active_directory/windows_server_2.svg;labelPosition=center;verticalLabelPosition=top;verticalAlign=bottom;" parent="1" vertex="1">
          <mxGeometry x="40" y="160" width="120" height="150" as="geometry" />
        </mxCell>
        <mxCell id="LQpbqU_6TQzX5eW3azaJ-2" value="&lt;b style=&quot;&quot;&gt;&lt;font style=&quot;font-size: 14px;&quot; face=&quot;Lucida Console&quot;&gt;snclient&lt;/font&gt;&lt;/b&gt;" style="rounded=1;whiteSpace=wrap;html=1;fontFamily=Comic Sans MS;" parent="1" vertex="1">
          <mxGeometry x="170" y="374.8" width="120" height="60" as="geometry" />
        </mxCell>
        <mxCell id="LQpbqU_6TQzX5eW3azaJ-3" value="&lt;b&gt;&lt;font style=&quot;font-size: 14px;&quot; face=&quot;Lucida Console&quot;&gt;alloy&lt;/font&gt;&lt;/b&gt;" style="rounded=1;whiteSpace=wrap;html=1;" parent="1" vertex="1">
          <mxGeometry x="130" y="495" width="120" height="60" as="geometry" />
        </mxCell>
        <mxCell id="LQpbqU_6TQzX5eW3azaJ-4" value="&lt;b&gt;&lt;font style=&quot;font-size: 14px;&quot; face=&quot;Lucida Console&quot;&gt;OMD server&lt;/font&gt;&lt;/b&gt;" style="image;aspect=fixed;perimeter=ellipsePerimeter;html=1;align=center;shadow=0;dashed=0;spacingTop=3;image=img/lib/active_directory/generic_server.svg;labelPosition=center;verticalLabelPosition=top;verticalAlign=bottom;" parent="1" vertex="1">
          <mxGeometry x="721.6" y="160" width="78.4" height="140" as="geometry" />
        </mxCell>
        <mxCell id="LQpbqU_6TQzX5eW3azaJ-5" value="" style="image;sketch=0;aspect=fixed;html=1;points=[];align=center;fontSize=12;image=img/lib/mscae/Dedicated_Event_Hub.svg;" parent="1" vertex="1">
          <mxGeometry x="40" y="320" width="62.5" height="60" as="geometry" />
        </mxCell>
        <mxCell id="LQpbqU_6TQzX5eW3azaJ-7" value="&lt;b&gt;Apache&lt;/b&gt;" style="dashed=0;outlineConnect=0;html=1;align=center;labelPosition=center;verticalLabelPosition=bottom;verticalAlign=top;shape=mxgraph.weblogos.apache" parent="1" vertex="1">
          <mxGeometry x="518" y="374.8" width="30" height="25.2" as="geometry" />
        </mxCell>
        <mxCell id="LQpbqU_6TQzX5eW3azaJ-9" value="&lt;b&gt;&lt;font style=&quot;font-size: 14px;&quot;&gt;Loki Log Store&lt;/font&gt;&lt;/b&gt;" style="sketch=0;outlineConnect=0;fontColor=#232F3E;gradientColor=none;fillColor=light-dark(#d07f35, #d16009);strokeColor=none;dashed=0;verticalLabelPosition=bottom;verticalAlign=top;align=center;html=1;fontSize=12;fontStyle=0;aspect=fixed;pointerEvents=1;shape=mxgraph.aws4.data_lake_resource_icon;" parent="1" vertex="1">
          <mxGeometry x="704" y="500" width="50" height="50" as="geometry" />
        </mxCell>
        <mxCell id="LQpbqU_6TQzX5eW3azaJ-10" value="&lt;b&gt;&lt;font style=&quot;font-size: 14px;&quot; face=&quot;Lucida Console&quot;&gt;User&lt;/font&gt;&lt;/b&gt;" style="verticalLabelPosition=bottom;sketch=0;aspect=fixed;html=1;verticalAlign=top;strokeColor=none;align=center;outlineConnect=0;shape=mxgraph.citrix.browser;fontFamily=Verdana;" parent="1" vertex="1">
          <mxGeometry x="378" y="160" width="47.5" height="72.5" as="geometry" />
        </mxCell>
        <mxCell id="LQpbqU_6TQzX5eW3azaJ-11" value="&lt;b&gt;&lt;font style=&quot;font-size: 13px;&quot;&gt;Apache serving&lt;br&gt;Loki API and&lt;br&gt;Grafana&lt;/font&gt;&lt;/b&gt;" style="ellipse;whiteSpace=wrap;html=1;aspect=fixed;" parent="1" vertex="1">
          <mxGeometry x="475" y="403" width="107" height="107" as="geometry" />
        </mxCell>
        <mxCell id="LQpbqU_6TQzX5eW3azaJ-13" value="" style="shape=image;verticalLabelPosition=bottom;labelBackgroundColor=default;verticalAlign=top;aspect=fixed;imageAspect=0;image=https://platformengineers.io/_nuxt/image/2c4d3a.png;" parent="1" vertex="1">
          <mxGeometry x="684" y="374.8" width="90" height="90" as="geometry" />
        </mxCell>
        <mxCell id="LQpbqU_6TQzX5eW3azaJ-18" value="" style="endArrow=classic;html=1;rounded=0;exitX=1;exitY=0.5;exitDx=0;exitDy=0;entryX=0.047;entryY=0.626;entryDx=0;entryDy=0;entryPerimeter=0;strokeWidth=3;" parent="1" source="LQpbqU_6TQzX5eW3azaJ-3" target="LQpbqU_6TQzX5eW3azaJ-11" edge="1">
          <mxGeometry width="50" height="50" relative="1" as="geometry">
            <mxPoint x="400" y="550" as="sourcePoint" />
            <mxPoint x="450" y="500" as="targetPoint" />
          </mxGeometry>
        </mxCell>
        <mxCell id="LQpbqU_6TQzX5eW3azaJ-19" value="" style="endArrow=classic;html=1;rounded=1;exitX=0.688;exitY=1.017;exitDx=0;exitDy=0;strokeWidth=3;exitPerimeter=0;entryX=0;entryY=0.5;entryDx=0;entryDy=0;curved=0;" parent="1" source="LQpbqU_6TQzX5eW3azaJ-5" target="LQpbqU_6TQzX5eW3azaJ-3" edge="1">
          <mxGeometry width="50" height="50" relative="1" as="geometry">
            <mxPoint x="260" y="535" as="sourcePoint" />
            <mxPoint x="83" y="520" as="targetPoint" />
            <Array as="points">
              <mxPoint x="83" y="480" />
            </Array>
          </mxGeometry>
        </mxCell>
        <mxCell id="LQpbqU_6TQzX5eW3azaJ-20" value="" style="endArrow=classic;html=1;rounded=0;exitX=1;exitY=0.5;exitDx=0;exitDy=0;strokeWidth=3;" parent="1" source="LQpbqU_6TQzX5eW3azaJ-11" target="LQpbqU_6TQzX5eW3azaJ-13" edge="1">
          <mxGeometry width="50" height="50" relative="1" as="geometry">
            <mxPoint x="582" y="465" as="sourcePoint" />
            <mxPoint x="812" y="410" as="targetPoint" />
          </mxGeometry>
        </mxCell>
        <mxCell id="LQpbqU_6TQzX5eW3azaJ-21" value="" style="endArrow=classic;html=1;rounded=0;strokeWidth=3;startArrow=classic;startFill=1;" parent="1" target="LQpbqU_6TQzX5eW3azaJ-9" edge="1">
          <mxGeometry width="50" height="50" relative="1" as="geometry">
            <mxPoint x="720" y="460" as="sourcePoint" />
            <mxPoint x="540" y="727.731343283582" as="targetPoint" />
          </mxGeometry>
        </mxCell>
        <mxCell id="LQpbqU_6TQzX5eW3azaJ-22" value="" style="endArrow=classic;html=1;rounded=0;exitX=0.442;exitY=1.003;exitDx=0;exitDy=0;entryX=0.5;entryY=0;entryDx=0;entryDy=0;strokeWidth=3;exitPerimeter=0;" parent="1" source="LQpbqU_6TQzX5eW3azaJ-2" target="LQpbqU_6TQzX5eW3azaJ-3" edge="1">
          <mxGeometry width="50" height="50" relative="1" as="geometry">
            <mxPoint x="210" y="745" as="sourcePoint" />
            <mxPoint x="440" y="690" as="targetPoint" />
          </mxGeometry>
        </mxCell>
        <mxCell id="LQpbqU_6TQzX5eW3azaJ-23" value="" style="endArrow=classic;html=1;rounded=1;strokeWidth=3;curved=0;entryX=0;entryY=0;entryDx=0;entryDy=0;" parent="1" target="LQpbqU_6TQzX5eW3azaJ-11" edge="1">
          <mxGeometry width="50" height="50" relative="1" as="geometry">
            <mxPoint x="410" y="255" as="sourcePoint" />
            <mxPoint x="540" y="665" as="targetPoint" />
            <Array as="points">
              <mxPoint x="410" y="370" />
            </Array>
          </mxGeometry>
        </mxCell>
        <mxCell id="LQpbqU_6TQzX5eW3azaJ-24" value="" style="endArrow=classic;html=1;rounded=0;strokeWidth=3;entryX=1;entryY=0;entryDx=0;entryDy=0;" parent="1" source="LQpbqU_6TQzX5eW3azaJ-13" target="LQpbqU_6TQzX5eW3azaJ-11" edge="1">
          <mxGeometry width="50" height="50" relative="1" as="geometry">
            <mxPoint x="610" y="120" as="sourcePoint" />
            <mxPoint x="570" y="410" as="targetPoint" />
          </mxGeometry>
        </mxCell>
        <mxCell id="LQpbqU_6TQzX5eW3azaJ-28" value="&lt;span style=&quot;background-color: rgb(255, 255, 102);&quot;&gt;&lt;font style=&quot;font-size: 14px;&quot;&gt;&lt;b&gt;6&lt;/b&gt;&lt;/font&gt;&lt;/span&gt;" style="ellipse;whiteSpace=wrap;html=1;aspect=fixed;fillColor=#fff2cc;strokeColor=#d6b656;" parent="1" vertex="1">
          <mxGeometry x="420" y="344.8" width="30" height="30" as="geometry" />
        </mxCell>
        <mxCell id="LQpbqU_6TQzX5eW3azaJ-29" value="&lt;span style=&quot;background-color: rgb(255, 255, 102);&quot;&gt;&lt;font style=&quot;font-size: 14px;&quot;&gt;&lt;b&gt;7&lt;/b&gt;&lt;/font&gt;&lt;/span&gt;" style="ellipse;whiteSpace=wrap;html=1;aspect=fixed;fillColor=#fff2cc;strokeColor=#d6b656;" parent="1" vertex="1">
          <mxGeometry x="610" y="380" width="30" height="30" as="geometry" />
        </mxCell>
        <mxCell id="LQpbqU_6TQzX5eW3azaJ-30" value="&lt;span style=&quot;background-color: rgb(255, 255, 102);&quot;&gt;&lt;font style=&quot;font-size: 14px;&quot;&gt;&lt;b&gt;5&lt;/b&gt;&lt;/font&gt;&lt;/span&gt;" style="ellipse;whiteSpace=wrap;html=1;aspect=fixed;fillColor=#fff2cc;strokeColor=#d6b656;" parent="1" vertex="1">
          <mxGeometry x="740" y="464.8" width="30" height="30" as="geometry" />
        </mxCell>
        <mxCell id="LQpbqU_6TQzX5eW3azaJ-31" value="&lt;span style=&quot;background-color: rgb(255, 255, 102);&quot;&gt;&lt;font style=&quot;font-size: 14px;&quot;&gt;&lt;b&gt;4&lt;/b&gt;&lt;/font&gt;&lt;/span&gt;" style="ellipse;whiteSpace=wrap;html=1;aspect=fixed;fillColor=#fff2cc;strokeColor=#d6b656;" parent="1" vertex="1">
          <mxGeometry x="620" y="450" width="30" height="30" as="geometry" />
        </mxCell>
        <mxCell id="LQpbqU_6TQzX5eW3azaJ-32" value="&lt;span style=&quot;background-color: rgb(255, 255, 102);&quot;&gt;&lt;font style=&quot;font-size: 14px;&quot;&gt;&lt;b&gt;3&lt;/b&gt;&lt;/font&gt;&lt;/span&gt;" style="ellipse;whiteSpace=wrap;html=1;aspect=fixed;fillColor=#fff2cc;strokeColor=#d6b656;" parent="1" vertex="1">
          <mxGeometry x="330" y="510" width="30" height="30" as="geometry" />
        </mxCell>
        <mxCell id="LQpbqU_6TQzX5eW3azaJ-33" value="&lt;span style=&quot;background-color: rgb(255, 255, 102);&quot;&gt;&lt;font style=&quot;font-size: 14px;&quot;&gt;&lt;b&gt;1&lt;/b&gt;&lt;/font&gt;&lt;/span&gt;" style="ellipse;whiteSpace=wrap;html=1;aspect=fixed;fillColor=#fff2cc;strokeColor=#d6b656;" parent="1" vertex="1">
          <mxGeometry x="215" y="445" width="30" height="30" as="geometry" />
        </mxCell>
        <mxCell id="LQpbqU_6TQzX5eW3azaJ-34" value="&lt;span style=&quot;background-color: rgb(255, 255, 102);&quot;&gt;&lt;font style=&quot;font-size: 14px;&quot;&gt;&lt;b&gt;2&lt;/b&gt;&lt;/font&gt;&lt;/span&gt;" style="ellipse;whiteSpace=wrap;html=1;aspect=fixed;fillColor=#fff2cc;strokeColor=#d6b656;" parent="1" vertex="1">
          <mxGeometry x="50" y="464.8" width="30" height="30" as="geometry" />
        </mxCell>
        <mxCell id="OcYjFq-00EQyuRky7zoW-1" value="&lt;font style=&quot;font-size: 14px;&quot; face=&quot;Lucida Console&quot;&gt;1 - The snclient agent starts the alloy agent. (snclient starts at boot)&lt;/font&gt;&lt;div&gt;&lt;font style=&quot;font-size: 14px;&quot; face=&quot;Lucida Console&quot;&gt;2 -&amp;nbsp;&lt;span style=&quot;background-color: transparent; color: light-dark(rgb(0, 0, 0), rgb(255, 255, 255));&quot;&gt;Alloy watches the Windows Event Log for newly generated events.&lt;/span&gt;&lt;/font&gt;&lt;/div&gt;&lt;div&gt;&lt;span style=&quot;background-color: transparent; color: light-dark(rgb(0, 0, 0), rgb(255, 255, 255));&quot;&gt;&lt;font style=&quot;font-size: 14px;&quot; face=&quot;Lucida Console&quot;&gt;3 - Every new event is forwarded to the Loki API. Apache and Thruk check the basic auth credentials.&lt;/font&gt;&lt;/span&gt;&lt;/div&gt;&lt;div&gt;&lt;span style=&quot;background-color: transparent; color: light-dark(rgb(0, 0, 0), rgb(255, 255, 255));&quot;&gt;&lt;font style=&quot;font-size: 14px;&quot; face=&quot;Lucida Console&quot;&gt;4 - Loki receives the data and&amp;nbsp;&lt;/font&gt;&lt;/span&gt;&lt;/div&gt;&lt;div&gt;&lt;span style=&quot;background-color: transparent; color: light-dark(rgb(0, 0, 0), rgb(255, 255, 255));&quot;&gt;&lt;font style=&quot;font-size: 14px;&quot; face=&quot;Lucida Console&quot;&gt;5 - writes it to its database, eventually updating the index.&lt;/font&gt;&lt;/span&gt;&lt;/div&gt;&lt;div&gt;&lt;font style=&quot;font-size: 14px;&quot; face=&quot;Lucida Console&quot;&gt;6 - A User opens the Grafana url in his browser and navigates to Explore/Loki, where he issues a select.&lt;/font&gt;&lt;/div&gt;&lt;div&gt;&lt;font style=&quot;font-size: 14px;&quot; face=&quot;Lucida Console&quot;&gt;7 - A list of matching logs is returned.&lt;/font&gt;&lt;/div&gt;&lt;div&gt;&lt;span style=&quot;background-color: transparent; color: light-dark(rgb(0, 0, 0), rgb(255, 255, 255));&quot;&gt;&lt;br&gt;&lt;/span&gt;&lt;/div&gt;" style="text;html=1;align=left;verticalAlign=top;whiteSpace=wrap;rounded=0;" vertex="1" parent="1">
          <mxGeometry x="50" y="640" width="750" height="140" as="geometry" />
        </mxCell>
      </root>
    </mxGraphModel>
  </diagram>
</mxfile>
